PathFileType   4   (X/Y/Z)
DataRate	CameraRate	NumFrames	NumMarkers	Units	OrigDataRate	OrigDataStartFrame	OrigNumFrames
120.0	120.0	11	37	mm	120.0	24	184
Frame#	Time	midhip	hip_r	hip_l	knee_r	knee_l	ankle_r	ankle_l	midasis	asis_r	asis_l	psis_r	psis_l	epicondLat_r	epicondLat_l	epicondMed_r	epicondMed_l	malleolusLat_r	malleolusLat_l	malleolusMedv_r	malleolusMedv_l	neck	subclavicle_r	subclavicle_l	sternalnotch	xyphoidprocess	thighwand_r	thighwand_l	upperleg1_r	upperleg1_l	upperleg2_r	upperleg2_l	shankwand_r	shankwand_l	lowerleg1_r	lowerleg1_l	toe_r	toe_l
 	 	X1	Y1	Z1	X2	Y2	Z2	X3	Y3	Z3	X4	Y4	Z4	X5	Y5	Z5	X6	Y6	Z6	X7	Y7	Z7	X8	Y8	Z8	X9	Y9	Z9	X10	Y10	Z10	X11	Y11	Z11	X12	Y12	Z12	X13	Y13	Z13	X14	Y14	Z14	X15	Y15	Z15	X16	Y16	Z16	X17	Y17	Z17	X18	Y18	Z18	X19	Y19	Z19	X20	Y20	Z20	X21	Y21	Z21	X22	Y22	Z22	X23	Y23	Z23	X24	Y24	Z24	X25	Y25	Z25	X26	Y26	Z26	X27	Y27	Z27	X28	Y28	Z28	X29	Y29	Z29	X30	Y30	Z30	X31	Y31	Z31	X32	Y32	Z32	X33	Y33	Z33	X34	Y34	Z34	X35	Y35	Z35	X36	Y36	Z36	X37	Y37	Z37

	24	0.40000	-885.258	747.966	233.449	-903.720	741.835	294.560	-899.773	747.381	164.423	-834.436	408.480	342.910	-929.020	431.235	187.438	-990.554	116.180	315.943	-881.806	67.801	199.239	-835.209	816.992	234.595	-838.298	812.651	336.446	-832.120	821.333	132.744	-993.609	846.799	264.970	-992.803	847.854	210.182	-849.367	413.027	395.650	-937.744	428.132	133.730	-806.100	400.272	308.434	-924.430	412.251	227.557	-1008.984	123.079	347.864	-897.949	64.628	166.098	-975.417	115.085	296.029	-875.346	79.137	226.612	-999.192	1216.241	222.119	-886.309	1163.791	266.279	-886.082	1169.302	190.742	-900.763	1164.280	226.902	-866.280	1084.536	223.599	-786.649	558.197	461.749	-767.242	542.834	147.542	-860.056	585.215	403.296	-834.507	607.669	123.232	-835.793	503.076	402.685	-855.282	521.751	130.091	-993.297	233.577	424.480	-918.582	190.427	84.894	-981.109	194.610	352.406	-913.823	154.201	160.139	-931.679	62.798	374.524	-780.259	49.770	183.160
	25	0.40833	-882.493	748.271	232.682	-900.494	742.463	294.343	-896.998	747.496	164.172	-825.614	409.812	342.483	-927.371	431.505	187.766	-973.513	113.173	316.872	-881.611	67.773	199.220	-832.008	817.213	233.843	-834.743	813.275	335.681	-829.273	821.150	132.005	-990.326	847.521	264.672	-989.848	848.469	209.870	-840.195	414.179	395.335	-936.359	428.362	134.104	-798.071	402.137	307.826	-922.642	412.922	228.363	-991.984	119.620	348.865	-898.006	64.670	166.197	-958.262	112.683	297.096	-875.378	79.089	226.629	-994.645	1216.922	220.624	-882.288	1164.094	265.171	-881.747	1169.334	189.584	-896.590	1164.518	225.723	-862.514	1084.584	222.836	-779.102	560.485	461.008	-765.405	542.411	146.967	-853.243	586.296	403.427	-832.528	607.468	122.829	-828.023	504.537	402.482	-853.576	521.894	130.094	-979.079	230.746	425.223	-918.689	190.614	85.176	-966.061	192.041	353.101	-913.552	154.376	160.353	-912.598	61.628	374.969	-780.332	49.756	183.012
	26	0.41667	-879.801	748.431	232.167	-897.273	743.023	294.138	-894.227	747.578	163.938	-816.988	411.129	341.912	-925.810	431.760	188.099	-956.273	110.265	317.804	-881.429	67.762	199.208	-828.802	817.369	233.126	-831.184	813.806	334.958	-826.419	820.932	131.295	-987.054	848.218	264.440	-986.842	849.027	209.625	-831.218	415.311	394.875	-935.063	428.584	134.485	-790.655	404.196	306.580	-920.039	412.970	229.359	-974.800	116.274	349.849	-898.061	64.730	166.295	-941.063	110.251	298.012	-875.410	79.050	226.654	-990.269	1217.489	219.033	-878.238	1164.359	263.984	-877.396	1169.528	188.455	-892.390	1164.791	224.512	-858.547	1084.751	221.822	-771.699	562.694	460.193	-763.660	541.949	146.408	-846.485	587.378	403.632	-831.302	606.972	122.179	-820.495	505.904	402.032	-851.875	521.843	130.029	-964.843	227.995	425.834	-918.784	190.826	85.461	-950.967	189.541	353.750	-913.294	154.597	160.532	-893.463	60.692	375.609	-780.416	49.747	182.864
	27	0.42500	-876.914	748.532	230.855	-894.061	743.516	293.946	-891.462	747.628	163.721	-808.530	412.429	341.219	-924.315	432.000	188.431	-938.899	107.495	318.719	-881.271	67.763	199.203	-825.599	817.467	232.445	-827.631	814.251	334.274	-823.567	820.683	130.615	-983.384	848.778	264.285	-983.798	849.544	209.455	-822.418	416.418	394.287	-933.832	428.797	134.864	-782.998	406.228	305.442	-917.529	412.767	230.074	-957.481	113.071	350.811	-898.117	64.802	166.394	-923.945	107.795	298.797	-875.183	79.067	226.704	-985.969	1217.984	217.384	-874.141	1164.630	262.835	-873.026	1169.845	187.396	-888.153	1165.108	223.354	-854.420	1085.019	220.728	-764.474	564.817	459.291	-761.994	541.453	145.870	-840.035	588.541	403.536	-830.327	606.522	121.575	-813.067	507.277	401.457	-850.364	521.695	129.881	-950.564	225.324	426.344	-918.851	191.062	85.740	-935.775	187.060	354.310	-913.126	154.808	160.698	-874.322	59.997	376.407	-780.507	49.743	182.717
	28	0.43333	-874.034	748.648	230.021	-890.855	743.950	293.788	-888.743	747.644	163.542	-800.195	413.718	340.426	-922.872	432.220	188.765	-921.432	104.894	319.615	-881.145	67.772	199.211	-822.415	817.506	231.792	-824.066	814.619	333.613	-820.763	820.394	129.970	-979.858	849.329	264.188	-980.727	850.016	209.362	-813.761	417.502	393.592	-932.649	428.998	135.246	-775.157	408.111	304.550	-916.143	412.804	229.853	-940.056	110.040	351.754	-898.181	64.884	166.494	-906.633	105.384	299.684	-874.986	79.083	226.763	-981.663	1218.389	215.751	-870.070	1164.901	261.799	-868.718	1169.841	186.319	-883.964	1165.272	222.262	-850.424	1085.090	220.026	-757.449	566.850	458.300	-760.383	540.935	145.357	-833.818	589.598	403.245	-828.398	606.450	121.444	-805.748	508.685	400.882	-848.838	521.552	129.660	-936.233	222.744	426.793	-918.881	191.309	86.014	-920.466	184.587	354.786	-913.048	154.984	160.884	-855.216	59.530	377.314	-780.599	49.744	182.569
	29	0.44167	-871.098	748.664	228.789	-887.622	744.325	293.672	-886.055	747.612	163.408	-791.951	415.001	339.542	-921.468	432.414	189.095	-903.912	102.480	320.495	-881.052	67.780	199.232	-819.239	817.496	231.158	-820.464	814.927	332.959	-818.014	820.064	129.357	-976.113	849.773	264.188	-977.647	850.425	209.323	-805.225	418.563	392.797	-931.504	429.184	135.624	-767.442	409.848	303.677	-915.214	413.138	229.745	-922.564	107.200	352.683	-898.260	64.965	166.598	-889.101	103.198	300.606	-874.950	79.064	226.817	-977.176	1218.707	214.292	-866.019	1165.108	260.756	-864.426	1169.755	185.303	-879.794	1165.371	221.197	-846.502	1085.076	219.364	-750.629	568.788	457.231	-758.806	540.407	144.861	-827.777	590.482	402.880	-826.239	606.335	121.281	-798.605	510.017	400.273	-847.385	521.346	129.484	-921.864	220.271	427.210	-918.879	191.543	86.286	-905.018	182.198	355.192	-913.008	155.125	161.128	-836.161	59.268	378.279	-780.686	49.745	182.419
	30	0.45000	-868.190	748.603	227.669	-884.347	744.641	293.577	-883.364	747.539	163.297	-783.802	416.279	338.573	-920.093	432.588	189.414	-886.379	100.261	321.361	-880.978	67.780	199.259	-816.051	817.440	230.536	-816.818	815.175	332.311	-815.284	819.704	128.761	-972.374	850.161	264.252	-974.559	850.770	209.332	-796.816	419.603	391.908	-930.383	429.358	135.992	-760.065	411.541	302.622	-913.777	413.430	230.212	-905.040	104.562	353.602	-898.353	65.039	166.707	-871.520	101.307	301.459	-874.875	79.054	226.874	-972.672	1218.972	212.919	-861.916	1165.223	259.754	-860.079	1169.780	184.303	-875.568	1165.474	220.153	-842.462	1085.097	218.515	-744.000	570.619	456.097	-757.242	539.866	144.379	-821.905	591.305	402.446	-824.497	606.044	120.958	-791.703	511.265	399.541	-845.954	521.151	129.431	-907.477	217.917	427.612	-918.886	191.752	86.558	-889.525	179.985	355.610	-912.939	155.239	161.432	-817.172	59.196	379.246	-780.765	49.739	182.268
	31	0.45833	-865.261	748.465	226.276	-881.036	744.907	293.485	-880.654	747.439	163.195	-775.757	417.550	337.527	-918.726	432.747	189.722	-868.852	98.248	322.224	-880.898	67.772	199.283	-812.836	817.342	229.922	-813.134	815.364	331.669	-812.538	819.319	128.176	-968.482	850.468	264.360	-971.436	851.092	209.375	-788.536	420.626	390.933	-929.265	429.522	136.348	-753.127	413.068	301.415	-912.213	413.554	230.658	-887.503	102.138	354.524	-898.450	65.103	166.821	-853.971	99.605	302.267	-874.764	79.056	226.946	-968.405	1219.178	211.479	-857.811	1165.344	258.834	-855.795	1169.768	183.336	-871.372	1165.544	219.180	-838.370	1085.121	217.759	-737.543	572.326	454.902	-755.670	539.304	143.905	-816.052	592.064	401.866	-822.807	605.749	120.777	-785.056	512.421	398.661	-844.527	520.948	129.432	-893.080	215.692	428.008	-918.929	191.929	86.825	-874.152	177.953	356.076	-912.834	155.319	161.732	-798.258	59.317	380.156	-780.832	49.720	182.117
	32	0.46667	-862.283	748.400	225.269	-877.686	745.134	293.408	-877.927	747.311	163.111	-767.813	418.808	336.406	-917.349	432.890	190.017	-851.352	96.455	323.091	-880.802	67.757	199.306	-809.590	817.202	229.320	-809.402	815.502	331.034	-809.778	818.902	127.605	-964.722	850.778	264.475	-968.278	851.395	209.450	-780.379	421.623	389.877	-928.134	429.679	136.692	-746.249	414.385	300.216	-910.787	413.605	230.982	-869.971	99.943	355.455	-898.543	65.158	166.941	-836.495	98.056	303.065	-874.746	79.027	227.043	-964.119	1219.407	210.090	-853.727	1165.429	257.929	-851.449	1169.687	182.426	-867.155	1165.570	218.228	-834.306	1085.080	217.090	-731.237	573.899	453.645	-754.062	538.711	143.435	-810.229	592.733	401.097	-821.081	605.405	120.584	-778.514	513.445	397.683	-843.135	520.629	129.390	-878.678	213.606	428.406	-918.999	192.071	87.082	-858.859	176.060	356.527	-912.707	155.354	162.004	-779.422	59.655	380.972	-780.888	49.682	181.972
	33	0.47500	-859.305	748.290	224.146	-874.293	745.322	293.345	-875.168	747.159	163.046	-759.975	420.035	335.209	-915.952	433.014	190.298	-833.914	94.891	323.946	-880.694	67.737	199.334	-806.299	817.019	228.734	-805.617	815.585	330.421	-806.981	818.453	127.047	-960.866	851.070	264.597	-965.103	851.675	209.546	-772.345	422.577	388.740	-926.978	429.824	137.020	-739.520	415.691	298.861	-909.258	413.619	231.151	-852.478	97.989	356.381	-898.623	65.208	167.066	-819.128	96.737	303.860	-874.743	78.978	227.136	-959.548	1219.653	208.865	-849.627	1165.390	257.004	-847.070	1169.538	181.539	-862.915	1165.527	217.274	-830.360	1084.915	216.356	-725.062	575.327	452.332	-752.401	538.089	142.968	-804.707	593.295	400.292	-819.277	605.032	120.289	-772.154	514.346	396.609	-841.595	520.324	129.240	-864.282	211.668	428.807	-919.055	192.188	87.323	-843.580	174.405	357.010	-912.571	155.371	162.274	-760.680	60.226	381.670	-780.932	49.625	181.840
	34	0.48333	-856.527	748.040	223.688	-870.849	745.467	293.271	-872.320	746.995	162.973	-752.262	421.214	333.936	-914.524	433.122	190.562	-816.600	93.554	324.764	-880.591	67.714	199.375	-802.938	816.803	228.174	-801.790	815.611	329.844	-804.086	817.995	126.504	-957.258	851.416	264.697	-961.909	851.930	209.658	-764.450	423.477	387.521	-925.785	429.957	137.332	-732.901	416.913	297.506	-907.641	413.760	231.388	-835.072	96.270	357.286	-898.684	65.258	167.194	-801.955	95.676	304.610	-874.660	79.006	227.197	-955.054	1219.768	207.743	-845.529	1165.276	256.147	-842.762	1169.318	180.753	-858.713	1165.404	216.416	-826.407	1084.689	215.683	-719.003	576.599	450.963	-750.686	537.441	142.504	-799.370	593.792	399.436	-817.316	604.677	120.000	-765.929	515.153	395.502	-839.923	520.114	129.117	-849.897	209.883	429.207	-919.028	192.301	87.538	-828.404	172.894	357.434	-912.427	155.397	162.518	-742.072	61.038	382.236	-780.967	49.549	181.728
